<svg xmlns="http://www.w3.org/2000/svg" width="70" height="70" viewBox="0 0 70 70" style="width: 100%; height: 100%;"><desc>Made with illustrio</desc>
  
<g class="base"><g fill="none" fill-rule="evenodd" stroke="none" class="main-fill">
    
    <path fill="none" d="M25.8288333,0 L2.0664,0 C0.925108333,0 0,0.898391667 0,2.00013333 L0,25.8986 C0,26.9969 0.925108333,27.8929583 2.0664,27.8929583 L25.827725,27.8929583 C26.9701833,27.8929583 27.8929583,26.9969 27.8929583,25.8986 L27.8929583,2.00013333 C27.8929583,0.898391667 26.970125,0 25.8288333,0 L25.8288333,0 Z M8.45850833,23.3475667 L4.24555833,23.3475667 L4.24555833,10.7573667 L8.45856667,10.7573667 L8.45856667,23.3475667 L8.45850833,23.3475667 Z M6.34911667,9.039625 L6.32123333,9.039625 C4.906825,9.039625 3.99215833,8.06569167 3.99215833,6.86163333 C3.99215833,5.62385833 4.93470833,4.68364167 6.37583333,4.68364167 C7.818125,4.68364167 8.70490833,5.62385833 8.731625,6.86163333 C8.73279167,8.06569167 7.81929167,9.039625 6.34911667,9.039625 L6.34911667,9.039625 Z M23.6474,23.3475667 L19.4425583,23.3475667 L19.4425583,16.6137417 C19.4425583,14.92155 18.8242833,13.7582083 17.29945,13.7582083 C16.1291083,13.7582083 15.4445667,14.5415083 15.1435667,15.3015917 C15.0331417,15.5596 15.0040917,15.9373083 15.0040917,16.3161833 L15.0040917,23.3475083 L10.78875,23.3475083 C10.78875,23.3475083 10.8421833,11.9358167 10.78875,10.7573083 L15.0040917,10.7573083 L15.0040917,12.5424833 C15.557325,11.6859167 16.5591417,10.4598083 18.7963417,10.4598083 C21.5716667,10.4598083 23.6474,12.2600917 23.6474,16.1278833 L23.6474,23.3475667 L23.6474,23.3475667 Z M14.9784833,12.6114083 C14.9844833,12.5895083 14.9943833,12.5676083 15.0202833,12.5437083 L15.0202833,12.6114083 L14.9784833,12.6114083 L14.9784833,12.6114083 L14.9784833,12.6114083 Z" transform="translate(21 21)" stroke="none" class="main-fill"></path>
  </g></g><style>
          .main-fill {fill: white;}
          .main-stroke {stroke: white;}
          .secondary-fill {fill: #fcfff9;}
          .secondary-stroke {stroke: #fcfff9;}

          .main-fill--darken {fill: #d9d9d9;}
          .main-stroke--darken {stroke: #d9d9d9;}
          .secondary-fill--darken {fill: #d6ffac;}
          .secondary-stroke--darken {stroke: #d6ffac;}

          .main-fill--darkener {fill: #bfbfbf;}
          .main-stroke--darkener {stroke: #bfbfbf;}
          .secondary-fill--darkener {fill: #bcff79;}
          .secondary-stroke--darkener {stroke: #bcff79;}
        </style></svg>