<svg xmlns="http://www.w3.org/2000/svg" width="70" height="70" viewBox="0 0 70 70" style="width: 100%; height: 100%;"><desc>Made with illustrio</desc>
  
<g class="base"><g fill="none" fill-rule="evenodd" stroke="none" class="main-fill">
    
    
    <path fill="none" d="M0,0.149132941 L0,34.7373682 L25.5294118,34.7373682 L25.5294118,8.38442706 L18.1176471,8.38442706 C17.6628432,8.38438159 17.2941631,8.01570155 17.2941176,7.56089765 L17.2941176,0.149132941 L0,0.149132941 Z M18.9411765,0.149132941 L18.9411765,6.73736824 L25.5294118,6.73736824 L18.9411765,0.149132941 Z M8.23529412,4.26678 C9.37235106,4.26678 10.2941176,5.18855647 10.2941176,6.32560353 C10.2941176,7.46265059 9.37235106,8.38442706 8.23529412,8.38442706 C7.09823718,8.38442706 6.17647059,7.46265059 6.17647059,6.32560353 C6.17647059,5.18855647 7.09823718,4.26678 8.23529412,4.26678 Z M8.23529412,10.0314859 C10.7367972,10.0314859 12.7647059,11.8750388 12.7647059,14.1491329 L3.70588235,14.1491329 C3.70588235,11.8750388 5.73379141,10.0314859 8.23529412,10.0314859 Z M3.59007353,17.8550153 C3.60293941,17.854714 3.61581059,17.854714 3.62867647,17.8550153 C3.65439762,17.8538084 3.68016121,17.8538084 3.70588235,17.8550153 L21.8235294,17.8550153 C22.1205237,17.8508151 22.3967729,18.0068538 22.5464958,18.2633812 C22.6962187,18.5199086 22.6962187,18.8371808 22.5464958,19.0937082 C22.3967729,19.3502356 22.1205237,19.5062744 21.8235294,19.5020741 L3.70588235,19.5020741 C3.25105963,19.5340538 2.85642828,19.1912718 2.82444856,18.7364491 C2.79246884,18.2816264 3.13525081,17.886995 3.59007353,17.8550153 Z M3.59007353,22.3844271 C3.60293941,22.3841258 3.61581059,22.3841258 3.62867647,22.3844271 C3.65439762,22.3832202 3.68016121,22.3832202 3.70588235,22.3844271 L21.8235294,22.3844271 C22.1205237,22.3802268 22.3967729,22.5362655 22.5464958,22.7927929 C22.6962187,23.0493203 22.6962187,23.3665926 22.5464958,23.62312 C22.3967729,23.8796474 22.1205237,24.0356861 21.8235294,24.0314859 L3.70588235,24.0314859 C3.25105962,24.0634656 2.85642825,23.7206836 2.82444853,23.2658609 C2.79246881,22.8110381 3.13525079,22.4164068 3.59007353,22.3844271 Z M3.59007353,26.9138388 C3.60293941,26.9135375 3.61581059,26.9135375 3.62867647,26.9138388 C3.65439762,26.9126319 3.68016121,26.9126319 3.70588235,26.9138388 L21.8235294,26.9138388 C22.1205237,26.9096386 22.3967729,27.0656773 22.5464958,27.3222047 C22.6962187,27.5787321 22.6962187,27.8960044 22.5464958,28.1525318 C22.3967729,28.4090592 22.1205237,28.5650979 21.8235294,28.5608976 L3.70588235,28.5608976 C3.25105962,28.5928774 2.85642825,28.2500954 2.82444853,27.7952726 C2.79246881,27.3404499 3.13525079,26.9458185 3.59007353,26.9138388 Z" transform="translate(22.235 17.557)" stroke="none" class="main-fill"></path>
  </g></g><style>
          .main-fill {fill: #000000;}
          .main-stroke {stroke: #000000;}
          .secondary-fill {fill: #ebffe2;}
          .secondary-stroke {stroke: #ebffe2;}

          .main-fill--darken {fill: #000000;}
          .main-stroke--darken {stroke: #000000;}
          .secondary-fill--darken {fill: #b6ff95;}
          .secondary-stroke--darken {stroke: #b6ff95;}

          .main-fill--darkener {fill: #000000;}
          .main-stroke--darkener {stroke: #000000;}
          .secondary-fill--darkener {fill: #93ff62;}
          .secondary-stroke--darkener {stroke: #93ff62;}
        </style></svg>